<?xml version="1.0" encoding="UTF-8"?>
<svg xmlns="http://www.w3.org/2000/svg" viewBox="0 0 748.9 136.7">
  <defs>
    <style>
      .cls-1 {
        fill: #fff;
      }
    </style>
  </defs>
  <g id="Layer_2" data-name="Layer 2">
    <polygon class="cls-1" points="203.69 72.75 216.07 84.37 239.42 90.03 258.1 86.29 269.31 79.05 274.44 71.12 283.08 72.28 294.06 71.12 304.8 65.04 311.8 57.11 316.24 50.1 319.74 41.69 321.14 35.39 325.81 39.59 335.85 46.83 348 51.03 361.62 52.33 380.75 51.15 390.26 46.77 395.71 43.56 400.73 48.91 410.03 56.07 427.24 62.27 443.48 63.02 456.2 60.02 465.5 57.03 475.12 50.08 480.89 44.42 482.49 43.35 485.59 46.24 492.33 51.26 499.38 54.79 510.92 57.14 516.48 57.03 528.02 56.07 533.15 55.32 534.12 57.14 533.47 61.41 532.94 65.47 532.83 70.18 533.26 74.77 534.12 79.47 535.93 84.5 541.38 92.41 547.05 97.64 553.35 102.24 558.59 105.87 565.64 107.69 565.64 111.22 565.64 115.92 567.89 121.16 572.38 127.14 578.15 130.99 584.99 133.98 592.68 134.94 603.69 132.91 612.46 130.46 620.9 125.33 627.74 119.23 629.45 114.53 634.26 114.85 638.43 114.96 645.27 114.74 654.89 111.65 662.69 106.94 670.28 100.53 675.94 90.7 677.44 85.57 678.19 79.9 682.46 79.26 686.74 80.12 690.48 80.97 696.46 82.47 706.51 82.79 718.37 80.54 728.42 75.2 740.6 67.4 748.9 61.6 748.9 0 0 0 0 76.88 5.23 79.86 14.03 81.21 21.1 83.72 29.65 83.4 44.3 82.82 58.76 79.48 73.93 72.15 82.28 64.51 89.61 56.09 91.98 52.49 101.94 52.75 110.68 50.82 115.5 47.54 119.62 42.91 121.61 44.97 124.69 48.44 132.72 55.51 141.4 60.52 152.9 64.83 160.49 66.75 172.12 67.72 181.76 67.59 191.27 66.82 197.31 65.66 200.78 65.53 203.69 72.75"/>
  </g>
  <g id="Layer_1" data-name="Layer 1">
    <path d="M320.3,33.2c-.6.7-1.3,2.7-1.6,4.3-2.8,15-14.4,29-27.2,33.1-4.7,1.4-5.4,1.4-11-.4-3.3-1.1-6.3-1.8-6.7-1.6-.3.2-1.6,2.4-2.8,4.8-2.7,5.7-7.5,9.3-16.3,12.3-6.2,2.2-8.4,2.5-17.2,2.1-9-.4-10.7-.7-16.9-3.8-9.8-5-15.4-10.1-16.7-15.7-.7-2.4-1.7-4.7-2.4-4.9-.7-.3-3.9.3-7.1,1.3-4.3,1.2-8.9,1.7-16.9,1.6-25.3-.3-44.7-8.5-55-23.3-2.9-4.2-5.5-5.2-5.5-2.1,0,2.5-3.5,6.8-7.2,8.7-2.7,1.4-5.9,1.6-16.8,1.1-3-.2-3.5.1-3.8,2.3-.3,1.4-3.6,5.6-8.2,10.2-6.2,6.3-9.5,8.6-16.3,11.8-12.9,6.1-19.6,7.3-36.2,6.7-12.3-.5-20.3-1.7-26.9-4.3-1.4-.5-1.7-.3-1.4,1.2.4,2.3,6,4,20.2,6,17.9,2.5,36.2-.7,50.5-8.8,6.7-3.8,17.1-13.5,19.6-18.3l2-3.5,5.6.6c7.4.8,14.8-1.5,18.6-6l2.8-3.2,6,6.1c9.2,9.2,19.5,14,36.9,17,11.1,1.9,21.1,1.9,30.1,0,3.8-.8,7.1-1.5,7.1-1.5.1,0,.9,2,1.8,4.5,2.2,5.5,7.7,10.5,17.1,15.1,9.6,4.7,17.3,6,27.3,4.6,13.6-1.9,25-8.6,28.3-16.4.9-2.1,1.6-2.7,2.8-2.2.9.4,3.6,1.1,6.1,1.7,12.7,2.7,30.3-10.7,36.6-28l2.7-7.3,4.4,4.1c9.1,8.4,20,11.4,39.4,10.7,14.1-.6,21.7-2.4,27.9-6.8,2.8-2,2.9-2,3.5-.1.3,1,2.5,3.7,4.9,5.9,12.5,11.5,32.4,15.4,51.9,10.3,9.9-2.6,16.5-6.2,22.8-12.4l5-4.9,3.5,3.1c8.2,7.2,19.9,10.6,33.9,9.8,5-.3,10-.9,11.3-1.3,2.1-.6,2.2-.5,1.1,2.2-1.9,4.9-1.4,15.2,1.1,21.9,4.4,11.7,15.1,22.5,25.8,26,5,1.6,5.2,1.8,5.2,5.3,0,5,4,13.2,8.1,16.6,10.9,9.2,25.4,9.7,42.7,1.5,6.8-3.3,15.2-10.2,15.2-12.5,0-2.1,1.7-2.6,5.8-1.4,8.8,2.3,24.9-3.8,33.2-12.6,5.9-6.2,10-14.3,10-19.7,0-2,.4-3.7.9-3.7.4,0,5.5,1,11.2,2.1,18,3.7,28.1,1.8,42.8-8.2,11.8-8,15-13.3,15-13.3,0,0-2.4-.2-10.2,5.7-12.3,9.3-18.6,12.4-28,13.8-6.5,1-8.7.8-18.3-1.1-16.6-3.4-15.8-3.7-16.6,3.8-.8,7.7-3.8,13-10.7,19.6-9.4,8.7-22.2,12.5-31.6,9.2-5.6-1.9-6.5-1.5-6.5,2.6s-4.6,8.2-15,13.1c-7.4,3.5-9.6,4.1-17.1,4.5-9.5.5-14.5-1-20.7-6.3-4.7-4-6.6-8.1-6.6-15l-.1-6-4-.6c-6.9-1-11.5-3.7-18.1-10.4-9.5-9.9-13.2-21.5-10.4-33.1,1.4-5.8.2-9.1-2.9-7.9-4.3,1.7-16.7,2.4-23.7,1.4-9.8-1.3-15.3-3.8-21.3-9.4-2.6-2.5-5.3-4.5-5.9-4.5s-2,1.6-3.2,3.5c-4.2,6.8-13,12.1-25.6,15.6-19.1,5.2-43.1-1.1-50.6-13.3-4.7-7.9-4.3-7.6-7.5-4.7-6.2,5.8-17,8.9-31.5,8.9-18.4,0-33.2-6.2-38.4-16.3-1.6-3-2.6-3.4-4.1-1.5Z"/>
  </g>
</svg>