<?xml version="1.0" encoding="utf-8"?>
<svg id="Layer_2" data-name="Layer 2" xmlns="http://www.w3.org/2000/svg" viewBox="0 0 779.64 174.85">
  <defs>
    <style>
      .cls-1 {
        fill: #fff;
        stroke: #231f20;
        stroke-miterlimit: 10;
        stroke-width: 3px;
      }
    </style>
  </defs>
  <path class="cls-1" d="M -0.789 69.843 C 1.581 74.386 5.918 81.345 13.381 87.904 C 22.987 96.333 32.894 99.787 38.131 101.236 C 42.509 102.439 51.753 104.474 63.316 102.922 C 73.377 101.575 80.521 98.132 82.383 97.196 C 87.745 94.513 92.475 91.008 94.277 89.661 C 96.006 88.366 97.424 87.225 98.428 86.382 C 101.729 88.819 106.17 91.491 111.771 93.455 C 113.075 93.907 117.826 95.521 124.338 96.137 C 126.574 96.353 131.739 96.713 138.27 95.726 C 141.51 95.243 146.24 94.246 151.612 92.057 C 157.037 89.836 160.816 87.338 162.202 86.393 C 164.717 84.666 166.726 82.97 168.216 81.592 C 169.645 83.227 171.643 85.365 174.2 87.688 C 175.534 88.901 180.162 93.013 187.16 97.176 C 188.371 97.895 192.19 100.126 197.5 102.408 C 198.981 103.045 202.551 104.536 207.333 105.995 C 209.032 106.52 213.069 107.702 218.411 108.699 C 221.392 109.254 225.335 109.86 229.941 110.189 C 230.377 110.22 232.932 110.313 238.056 110.488 C 241.887 110.621 244.133 110.693 247.207 110.488 C 247.362 110.477 248.832 110.374 250.551 110.179 C 259.474 109.141 268.469 106.17 271.813 105.009 C 276.316 103.446 279.307 102.11 280.249 101.678 C 283.541 100.188 286.005 98.841 287.154 98.204 C 289.999 96.61 292.102 95.223 292.918 94.678 C 298.861 90.689 302.878 86.814 303.84 85.868 C 308.125 81.664 310.806 77.994 311.571 76.936 C 314.16 73.317 315.733 70.326 316.291 69.247 C 317.379 67.119 318.175 65.238 318.755 63.737 C 320.215 65.011 322.171 66.564 324.635 68.106 C 325.794 68.835 328.93 70.737 333.373 72.413 C 334.563 72.865 337.802 74.037 342.192 74.859 C 343.889 75.178 347.667 75.805 352.573 75.795 C 353.816 75.795 356.404 75.743 359.696 75.332 C 365.15 74.643 369.508 73.317 372.417 72.258 C 374.415 71.529 375.958 70.85 376.826 70.449 C 381.464 68.311 384.755 66.039 386.319 64.898 C 389.299 62.719 391.392 60.735 392.374 59.759 C 394.237 57.908 395.729 56.151 396.887 54.67 C 397.809 55.935 399.103 57.59 400.769 59.419 C 401.525 60.252 404.36 63.315 408.812 66.738 C 409.805 67.499 413.688 70.449 419.411 73.43 C 420.861 74.181 425.437 76.524 431.845 78.601 C 438.19 80.657 443.241 81.469 444.949 81.726 C 450.176 82.507 454.151 82.558 457.256 82.579 C 461.303 82.61 465.454 82.63 470.889 81.746 C 475.972 80.924 479.792 79.69 481.458 79.125 C 486.809 77.295 490.485 75.239 491.281 74.787 C 494.604 72.906 496.83 71.159 497.327 70.768 C 500.743 68.075 502.854 65.597 503.507 64.806 C 504.22 63.942 504.779 63.192 505.172 62.647 C 506.601 64.405 508.382 66.451 510.555 68.62 C 511.302 69.37 513.507 71.549 516.663 74.129 C 517.583 74.89 520.41 77.172 524.448 79.814 C 526.104 80.893 530.544 83.73 536.765 86.67 C 538.401 87.441 542.686 89.404 548.483 91.358 C 550.553 92.057 554.839 93.434 560.459 94.668 C 566.432 95.983 571.318 96.569 574.258 96.857 C 579.662 97.381 583.843 97.402 585.469 97.392 C 592.993 97.361 598.687 96.549 600.405 96.292 C 608.479 95.079 614.338 93.156 615.632 92.735 C 622.774 90.36 627.691 87.678 628.892 87.009 C 633.426 84.491 636.398 82.199 637.328 81.458 C 639.274 79.927 640.838 78.488 641.997 77.357 C 642.939 76.545 644.036 75.476 645.102 74.078 C 645.931 72.999 646.562 71.96 647.047 71.035 C 648.207 71.981 649.936 73.194 652.286 74.068 C 652.493 74.15 653.083 74.366 653.89 74.582 C 659.263 76.062 667.15 75.774 667.472 75.764 C 669.967 75.661 673.289 75.414 677.191 74.787 C 680.038 74.15 683.091 73.338 686.321 72.3 C 689.635 71.241 692.677 70.089 695.42 68.938 C 695.254 69.709 695.1 70.871 695.254 72.238 C 695.42 73.656 695.937 75.466 698.256 78.539 C 701.724 83.124 706.092 86.434 706.092 86.434 C 706.092 86.434 709.591 89.62 712.541 91.841 C 716.154 94.565 719.321 96.137 721.277 97.093 C 723.244 98.06 726.278 99.406 730.158 100.588 C 732.105 101.185 734.911 101.925 738.347 102.47 C 743.151 103.23 746.938 103.23 748.678 103.199 C 749.847 103.179 752.022 103.097 754.733 102.768 C 758.138 102.346 760.747 101.729 761.979 101.411 C 763.936 100.917 765.322 100.445 767.591 99.684 C 769.846 98.923 771.72 98.234 773.087 97.7 C 773.282 97.638 773.562 97.525 773.903 97.381 C 775.653 96.621 776.719 95.603 777.278 95.12 C 778.117 94.38 779.42 93.403 781.409 92.447 L 779.773 -1.558 L -1.401 -1.558 L -0.779 69.822 L -0.789 69.843 Z" style=""/>
</svg>