<?xml version="1.0" encoding="UTF-8"?>
<svg xmlns="http://www.w3.org/2000/svg" viewBox="0 0 779.64 175.35">
  <defs>
    <style>
      .cls-1 {
        fill: #fff;
      }

      .cls-2 {
        fill: none;
        stroke: #000;
        stroke-miterlimit: 10;
        stroke-width: 4px;
      }
    </style>
  </defs>
  <g id="Layer_2" data-name="Layer 2">
    <path class="cls-1" d="M3.98,133.67c2.29,4.42,6.48,11.19,13.69,17.57,9.28,8.2,18.85,11.56,23.91,12.97,4.23,1.17,13.16,3.15,24.33,1.64,9.72-1.31,16.62-4.66,18.42-5.57,5.18-2.61,9.75-6.02,11.49-7.33,1.67-1.26,3.04-2.37,4.01-3.19,3.19,2.37,7.48,4.97,12.89,6.88,1.26.44,5.85,2.01,12.14,2.61,2.16.21,7.15.56,13.46-.4,3.13-.47,7.7-1.44,12.89-3.57,5.24-2.16,8.89-4.59,10.23-5.51,2.43-1.68,4.37-3.33,5.81-4.67,1.38,1.59,3.31,3.67,5.78,5.93,1.29,1.18,5.76,5.18,12.52,9.23,1.17.7,4.86,2.87,9.99,5.09,1.43.62,4.88,2.07,9.5,3.49,1.64.51,5.54,1.66,10.7,2.63,2.88.54,6.69,1.13,11.14,1.45.42.03,2.89.12,7.84.29,3.7.13,5.87.2,8.84,0,.15-.01,1.57-.11,3.23-.3,8.62-1.01,17.31-3.9,20.54-5.03,4.35-1.52,7.24-2.82,8.15-3.24,3.18-1.45,5.56-2.76,6.67-3.38,2.75-1.55,4.78-2.9,5.57-3.43,5.74-3.88,9.62-7.65,10.55-8.57,4.14-4.09,6.73-7.66,7.47-8.69,2.5-3.52,4.02-6.43,4.56-7.48,1.05-2.07,1.82-3.9,2.38-5.36,1.41,1.24,3.3,2.75,5.68,4.25,1.12.71,4.15,2.56,8.44,4.19,1.15.44,4.28,1.58,8.52,2.38,1.64.31,5.29.92,10.03.91,1.2,0,3.7-.05,6.88-.45,5.27-.67,9.48-1.96,12.29-2.99,1.93-.71,3.42-1.37,4.26-1.76,4.48-2.08,7.66-4.29,9.17-5.4,2.88-2.12,4.9-4.05,5.85-5,1.8-1.8,3.24-3.51,4.36-4.95.89,1.23,2.14,2.84,3.75,4.62.73.81,3.47,3.79,7.77,7.12.96.74,4.71,3.61,10.24,6.51,1.4.73,5.82,3.01,12.01,5.03,6.13,2,11.01,2.79,12.66,3.04,5.05.76,8.89.81,11.89.83,3.91.03,7.92.05,13.17-.81,4.91-.8,8.6-2,10.21-2.55,5.17-1.78,8.72-3.78,9.49-4.22,3.21-1.83,5.36-3.53,5.84-3.91,3.3-2.62,5.34-5.03,5.97-5.8.69-.84,1.23-1.57,1.61-2.1,1.38,1.71,3.1,3.7,5.2,5.81.72.73,2.85,2.85,5.9,5.36.89.74,3.62,2.96,7.52,5.53,1.6,1.05,5.89,3.81,11.9,6.67,1.58.75,5.72,2.66,11.32,4.56,2,.68,6.14,2.02,11.57,3.22,5.77,1.28,10.49,1.85,13.33,2.13,5.22.51,9.26.53,10.83.52,7.27-.03,12.77-.82,14.43-1.07,7.8-1.18,13.46-3.05,14.71-3.46,6.9-2.31,11.65-4.92,12.81-5.57,4.38-2.45,7.25-4.68,8.15-5.4,1.88-1.49,3.39-2.89,4.51-3.99.91-.79,1.97-1.83,3-3.19.8-1.05,1.41-2.06,1.88-2.96,1.12.92,2.79,2.1,5.06,2.95.2.08.77.29,1.55.5,5.19,1.44,12.81,1.16,13.12,1.15,2.41-.1,5.62-.34,9.39-.95,2.75-.62,5.7-1.41,8.82-2.42,3.2-1.03,6.14-2.15,8.79-3.27-.16.75-.31,1.88-.16,3.21.16,1.38.66,3.14,2.9,6.13,3.35,4.46,7.57,7.68,7.57,7.68h0s3.38,3.1,6.23,5.26c3.49,2.65,6.55,4.18,8.44,5.11,1.9.94,4.83,2.25,8.58,3.4,1.88.58,4.59,1.3,7.91,1.83,4.64.74,8.3.74,9.98.71,1.13-.02,3.23-.1,5.85-.42,3.29-.41,5.81-1.01,7-1.32,1.89-.48,3.23-.94,5.42-1.68,2.18-.74,3.99-1.41,5.31-1.93.19-.06.46-.17.79-.31,1.69-.74,2.72-1.73,3.26-2.2.81-.72,2.07-1.67,3.99-2.6l-1.58-91.45H3.39l.6,69.44Z"/>
  </g>
  <g id="Layer_3" data-name="Layer 3">
    <path class="cls-2" d="M3.98,133.67c.68,1.31,1.45,2.7,2.35,4.14.95,1.52,1.9,2.89,2.83,4.12.07.11.19.27.32.47,1.39,1.99,2.63,3.31,4.06,4.82,1.81,1.92,3.24,3.22,3.58,3.53.7.64,1.58,1.4,2.61,2.23,1.01.81,2.26,1.77,3.74,2.79.86.59,2.04,1.37,3.48,2.22.97.57,2.19,1.25,3.63,1.98,1.96.98,3.71,1.73,5.13,2.28,1.79.7,3.26,1.18,4.14,1.45,1.65.51,3.91,1.13,6.63,1.64.87.16,2.35.42,4.2.64,2.36.27,4.45.38,6.15.4,2.53.04,4.63-.09,6.1-.21,1.52-.13,3.9-.39,6.79-.97,1.25-.25,3-.64,5.05-1.24,2.09-.6,3.67-1.18,4.37-1.44,1.95-.73,3.38-1.38,3.68-1.53,1.85-.85,3.19-1.61,4.03-2.08,1.48-.84,2.6-1.55,3.31-2.01,1.03-.66,1.79-1.18,2.24-1.5.55-.38,1.82-1.26,3.41-2.46,1.16-.87,2.51-1.94,4.01-3.19.58.44,1.35.98,2.26,1.58,1.86,1.23,3.47,2.11,4.52,2.65,2.31,1.19,4.19,1.93,5.06,2.26.65.25,2.54.94,5.1,1.6.94.24,3.21.79,6.19,1.18,1.52.2,3.56.4,5.99.45.96.02,3.05.03,5.72-.2,2.01-.17,3.77-.43,5.24-.7,2.19-.4,4.09-.88,5.67-1.34,1.75-.51,3.28-1.05,4.53-1.53,1.23-.48,2.87-1.16,4.74-2.09,1.87-.93,3.25-1.75,3.75-2.04,2.06-1.24,3.65-2.38,4.62-3.11,1.22-.92,2.59-2.04,4.03-3.38l3.07,3.32,5.21,4.78,5.03,3.83,4.44,2.91,5.23,2.92,5.31,2.51,5.76,2.25,6.56,2.06,6.18,1.48,6.68,1.14,6.14.64,6.27.24,5.61.18,8.02-.43,4.28-.64,6.88-1.53,6.12-1.77,5.1-1.75,6.31-2.58,4.77-2.35,4.96-2.85,5.01-3.38,3.91-3.07,3.5-3.12,2.88-2.94,3.82-4.49,3.05-4.31,2.92-5.07,2.38-5.36,4.27,3.32,5.67,3.31,3.29,1.47,2.96,1.08,5.53,1.47,4.06.67,4.9.39,5.28-.08,5.62-.64,5.2-1.11,5.05-1.59,5.07-2.15,4.88-2.67,4.58-3.17,3.79-3.24,3.16-3.27,2.16-2.62,2.6,3.32,3.12,3.36,5.79,5.06,3.93,2.79,4.02,2.46,4.59,2.41,4.54,1.99,6.3,2.24,4.73,1.32,4.72,1.02,5.11.74,4.83.36,5.93.1,6.21-.21,5.04-.61,6.25-1.34,6.55-2.16,5.15-2.32,4.65-2.73,3.59-2.64,3.74-3.49,3.19-3.88,2.14,2.54,3.59,3.8,5.36,4.83,2.65,2.09,4.17,2.97,5.14,3.21,4.49,2.45,2.97,1.47,3.53,1.59,4.51,1.8,4.8,1.67,6.5,1.87,7.47,1.65,4.95.8,4.47.53,4.76.36,5.5.16,6.1-.17,5.89-.5,5.2-.76,5.23-1.07,5.4-1.43,4.93-1.68,3.88-1.58,4.3-2.05,4.52-2.59,3.96-2.7,3.53-2.87,3.21-2.98,2.49-2.92,1.42-2.32,1.35,1.01,1.47.91,2.88,1.26,3.55.84,4,.45,5.28.16,4.67-.25,3.95-.44,4.29-.85,3.74-1.02,4.06-1.28,3.65-1.3,3.83-1.54-.19,1.25-.03,1.09.14,1.42.67,2.08,1.4,2.44c.55.79,1.17,1.61,1.87,2.46.79.96,1.58,1.81,2.34,2.56l2.01,1.92c.97.84,1.95,1.68,2.93,2.52,1.55,1.32,3.09,2.63,4.62,3.91l2.97,2.17,3.99,2.4,3.63,1.81,4.73,1.93,3.82,1.22,3.96.96,3.67.63,3.95.42,4.95.13,4.02-.22,3.51-.43,3.07-.56,4.8-1.25,3.91-1.3,3.11-1.13,2.48-1.01,1.61-1.01c1.7-1.18,3.41-2.37,5.11-3.55"/>
  </g>
</svg>