<?xml version="1.0" encoding="utf-8"?>
<svg id="Layer_2" data-name="Layer 2" xmlns="http://www.w3.org/2000/svg" viewBox="0 0 779.64 174.85">
  <defs>
    <style>
      .cls-1 {
        fill: #fff;
        stroke: #231f20;
        stroke-miterlimit: 10;
        stroke-width: 3px;
      }
    </style>
  </defs>
  <path class="cls-1" d="M -1.225 38.592 C 1.145 43.135 5.482 50.094 12.945 56.653 C 22.551 65.082 32.458 68.536 37.695 69.985 C 42.073 71.188 51.317 73.223 62.88 71.671 C 72.941 70.324 80.085 66.881 81.947 65.945 C 87.309 63.262 92.039 59.757 93.841 58.41 C 95.57 57.115 96.988 55.974 97.992 55.131 C 101.293 57.568 105.734 60.24 111.335 62.204 C 112.639 62.656 117.39 64.27 123.902 64.886 C 126.138 65.102 131.303 65.462 137.834 64.475 C 141.074 63.992 145.804 62.995 151.176 60.806 C 156.601 58.585 160.38 56.087 161.766 55.142 C 164.281 53.415 166.29 51.719 167.78 50.341 C 169.209 51.976 171.207 54.114 173.764 56.437 C 175.098 57.65 179.726 61.762 186.724 65.925 C 187.935 66.644 191.754 68.875 197.064 71.157 C 198.545 71.794 202.115 73.285 206.897 74.744 C 208.596 75.269 212.633 76.451 217.975 77.448 C 220.956 78.003 224.899 78.609 229.505 78.938 C 229.941 78.969 232.496 79.062 237.62 79.237 C 241.451 79.37 243.697 79.442 246.771 79.237 C 246.926 79.226 248.396 79.123 250.115 78.928 C 259.038 77.89 268.033 74.919 271.377 73.758 C 275.88 72.195 278.871 70.859 279.813 70.427 C 283.105 68.937 285.569 67.59 286.718 66.953 C 289.563 65.359 291.666 63.972 292.482 63.427 C 298.425 59.438 302.442 55.563 303.404 54.617 C 307.689 50.413 310.37 46.743 311.135 45.685 C 313.724 42.066 315.297 39.075 315.855 37.996 C 316.943 35.868 317.739 33.987 318.319 32.486 C 319.779 33.76 321.735 35.313 324.199 36.855 C 325.358 37.584 328.494 39.486 332.937 41.162 C 334.127 41.614 337.366 42.786 341.756 43.608 C 343.453 43.927 347.231 44.554 352.137 44.544 C 353.38 44.544 355.968 44.492 359.26 44.081 C 364.714 43.392 369.072 42.066 371.981 41.007 C 373.979 40.278 375.522 39.599 376.39 39.198 C 381.028 37.06 384.319 34.788 385.883 33.647 C 388.863 31.468 390.956 29.484 391.938 28.508 C 393.801 26.657 395.293 24.9 396.451 23.419 C 397.373 24.684 398.667 26.339 400.333 28.168 C 401.089 29.001 403.924 32.064 408.376 35.487 C 409.369 36.248 413.252 39.198 418.975 42.179 C 420.425 42.93 425.001 45.273 431.409 47.35 C 437.754 49.406 442.805 50.218 444.513 50.475 C 449.74 51.256 453.715 51.307 456.82 51.328 C 460.867 51.359 465.018 51.379 470.453 50.495 C 475.536 49.673 479.356 48.439 481.022 47.874 C 486.373 46.044 490.049 43.988 490.845 43.536 C 494.168 41.655 496.394 39.908 496.891 39.517 C 500.307 36.824 502.418 34.346 503.071 33.555 C 503.784 32.691 504.343 31.941 504.736 31.396 C 506.165 33.154 507.946 35.2 510.119 37.369 C 510.866 38.119 513.071 40.298 516.227 42.878 C 517.147 43.639 519.974 45.921 524.012 48.563 C 525.668 49.642 530.108 52.479 536.329 55.419 C 537.965 56.19 542.25 58.153 548.047 60.107 C 550.117 60.806 554.403 62.183 560.023 63.417 C 565.996 64.732 570.882 65.318 573.822 65.606 C 579.226 66.13 583.407 66.151 585.033 66.141 C 592.557 66.11 598.251 65.298 599.969 65.041 C 608.043 63.828 613.902 61.905 615.196 61.484 C 622.338 59.109 627.255 56.427 628.456 55.758 C 632.99 53.24 635.962 50.948 636.892 50.207 C 638.838 48.676 640.402 47.237 641.561 46.106 C 642.503 45.294 643.6 44.225 644.666 42.827 C 645.495 41.748 646.126 40.709 646.611 39.784 C 647.771 40.73 649.5 41.943 651.85 42.817 C 652.057 42.899 652.647 43.115 653.454 43.331 C 658.827 44.811 666.714 44.523 667.036 44.513 C 669.531 44.41 672.853 44.163 676.755 43.536 C 679.602 42.899 682.655 42.087 685.885 41.049 C 689.199 39.99 692.241 38.838 694.984 37.687 C 694.818 38.458 694.664 39.62 694.818 40.987 C 694.984 42.405 695.501 44.215 697.82 47.288 C 701.288 51.873 705.656 55.183 705.656 55.183 C 705.656 55.183 709.155 58.369 712.105 60.59 C 715.718 63.314 718.885 64.886 720.841 65.842 C 722.808 66.809 725.842 68.155 729.722 69.337 C 731.669 69.934 734.475 70.674 737.911 71.219 C 742.715 71.979 746.502 71.979 748.242 71.948 C 749.411 71.928 751.586 71.846 754.297 71.517 C 757.702 71.095 760.311 70.478 761.543 70.16 C 763.5 69.666 764.886 69.194 767.155 68.433 C 769.41 67.672 771.284 66.983 772.651 66.449 C 772.846 66.387 773.126 66.274 773.467 66.13 C 775.217 65.37 776.283 64.352 776.842 63.869 C 777.681 63.129 778.984 62.152 780.973 61.196 L 779.337 -32.809 L -1.837 -32.809 L -1.215 38.571 L -1.225 38.592 Z" style=""/>
</svg>