<?xml version="1.0" encoding="UTF-8"?>
<svg id="Layer_2" data-name="Layer 2" xmlns="http://www.w3.org/2000/svg" viewBox="0 0 779.64 174.85">
  <defs>
    <style>
      .cls-1 {
        fill: #fff;
        stroke: #231f20;
        stroke-miterlimit: 10;
        stroke-width: 3px;
      }
    </style>
  </defs>
  <path class="cls-1" d="M3.98,133.67c2.29,4.42,6.48,11.19,13.69,17.57,9.28,8.2,18.85,11.56,23.91,12.97,4.23,1.17,13.16,3.15,24.33,1.64,9.72-1.31,16.62-4.66,18.42-5.57,5.18-2.61,9.75-6.02,11.49-7.33,1.67-1.26,3.04-2.37,4.01-3.19,3.19,2.37,7.48,4.97,12.89,6.88,1.26.44,5.85,2.01,12.14,2.61,2.16.21,7.15.56,13.46-.4,3.13-.47,7.7-1.44,12.89-3.57,5.24-2.16,8.89-4.59,10.23-5.51,2.43-1.68,4.37-3.33,5.81-4.67,1.38,1.59,3.31,3.67,5.78,5.93,1.29,1.18,5.76,5.18,12.52,9.23,1.17.7,4.86,2.87,9.99,5.09,1.43.62,4.88,2.07,9.5,3.49,1.64.51,5.54,1.66,10.7,2.63,2.88.54,6.69,1.13,11.14,1.45.42.03,2.89.12,7.84.29,3.7.13,5.87.2,8.84,0,.15-.01,1.57-.11,3.23-.3,8.62-1.01,17.31-3.9,20.54-5.03,4.35-1.52,7.24-2.82,8.15-3.24,3.18-1.45,5.56-2.76,6.67-3.38,2.75-1.55,4.78-2.9,5.57-3.43,5.74-3.88,9.62-7.65,10.55-8.57,4.14-4.09,6.73-7.66,7.47-8.69,2.5-3.52,4.02-6.43,4.56-7.48,1.05-2.07,1.82-3.9,2.38-5.36,1.41,1.24,3.3,2.75,5.68,4.25,1.12.71,4.15,2.56,8.44,4.19,1.15.44,4.28,1.58,8.52,2.38,1.64.31,5.29.92,10.03.91,1.2,0,3.7-.05,6.88-.45,5.27-.67,9.48-1.96,12.29-2.99,1.93-.71,3.42-1.37,4.26-1.76,4.48-2.08,7.66-4.29,9.17-5.4,2.88-2.12,4.9-4.05,5.85-5,1.8-1.8,3.24-3.51,4.36-4.95.89,1.23,2.14,2.84,3.75,4.62.73.81,3.47,3.79,7.77,7.12.96.74,4.71,3.61,10.24,6.51,1.4.73,5.82,3.01,12.01,5.03,6.13,2,11.01,2.79,12.66,3.04,5.05.76,8.89.81,11.89.83,3.91.03,7.92.05,13.17-.81,4.91-.8,8.6-2,10.21-2.55,5.17-1.78,8.72-3.78,9.49-4.22,3.21-1.83,5.36-3.53,5.84-3.91,3.3-2.62,5.34-5.03,5.97-5.8.69-.84,1.23-1.57,1.61-2.1,1.38,1.71,3.1,3.7,5.2,5.81.72.73,2.85,2.85,5.9,5.36.89.74,3.62,2.96,7.52,5.53,1.6,1.05,5.89,3.81,11.9,6.67,1.58.75,5.72,2.66,11.32,4.56,2,.68,6.14,2.02,11.57,3.22,5.77,1.28,10.49,1.85,13.33,2.13,5.22.51,9.26.53,10.83.52,7.27-.03,12.77-.82,14.43-1.07,7.8-1.18,13.46-3.05,14.71-3.46,6.9-2.31,11.65-4.92,12.81-5.57,4.38-2.45,7.25-4.68,8.15-5.4,1.88-1.49,3.39-2.89,4.51-3.99.91-.79,1.97-1.83,3-3.19.8-1.05,1.41-2.06,1.88-2.96,1.12.92,2.79,2.1,5.06,2.95.2.08.77.29,1.55.5,5.19,1.44,12.81,1.16,13.12,1.15,2.41-.1,5.62-.34,9.39-.95,2.75-.62,5.7-1.41,8.82-2.42,3.2-1.03,6.14-2.15,8.79-3.27-.16.75-.31,1.88-.16,3.21.16,1.38.66,3.14,2.9,6.13,3.35,4.46,7.57,7.68,7.57,7.68h0s3.38,3.1,6.23,5.26c3.49,2.65,6.55,4.18,8.44,5.11,1.9.94,4.83,2.25,8.58,3.4,1.88.58,4.59,1.3,7.91,1.83,4.64.74,8.3.74,9.98.71,1.13-.02,3.23-.1,5.85-.42,3.29-.41,5.81-1.01,7-1.32,1.89-.48,3.23-.94,5.42-1.68,2.18-.74,3.99-1.41,5.31-1.93.19-.06.46-.17.79-.31,1.69-.74,2.72-1.73,3.26-2.2.81-.72,2.07-1.67,3.99-2.6l-1.58-91.45H3.39l.6,69.44Z"/>
</svg>