<?xml version="1.0" encoding="utf-8"?>
<svg id="Layer_2" data-name="Layer 2" xmlns="http://www.w3.org/2000/svg" viewBox="0 0 779.64 174.85">
  <defs>
    <style>
      .cls-1 {
        fill: #fff;
        stroke: #231f20;
        stroke-miterlimit: 10;
        stroke-width: 3px;
      }
    </style>
  </defs>
  <path class="cls-1" d="M -4.06 111.682 C -1.675 118.754 2.689 129.582 10.197 139.787 C 19.862 152.902 29.829 158.276 35.099 160.531 C 39.504 162.404 48.805 165.57 60.438 163.156 C 70.561 161.06 77.747 155.7 79.622 154.246 C 85.016 150.071 89.776 144.615 91.589 142.522 C 93.328 140.505 94.755 138.732 95.765 137.419 C 99.087 141.21 103.555 145.368 109.19 148.424 C 110.501 149.129 115.282 151.637 121.833 152.598 C 124.083 152.934 129.28 153.494 135.851 151.958 C 139.111 151.206 143.87 149.654 149.276 146.249 C 154.733 142.793 158.535 138.906 159.93 137.435 C 162.461 134.749 164.481 132.108 165.981 129.965 C 167.419 132.509 169.429 135.835 172.001 139.451 C 173.344 141.338 178 147.734 185.04 154.215 C 186.259 155.333 190.101 158.803 195.444 162.355 C 196.934 163.348 200.526 165.666 205.339 167.937 C 207.046 168.753 211.109 170.593 216.482 172.145 C 219.481 173.007 223.45 173.951 228.084 174.462 C 228.521 174.511 231.094 174.654 236.249 174.927 C 240.103 175.134 242.363 175.248 245.456 174.927 C 245.612 174.911 247.091 174.75 248.82 174.448 C 257.798 172.831 266.848 168.209 270.211 166.402 C 274.742 163.971 277.752 161.891 278.7 161.22 C 282.011 158.901 284.49 156.805 285.646 155.813 C 288.51 153.333 290.625 151.174 291.448 150.328 C 297.425 144.121 301.466 138.091 302.435 136.618 C 306.746 130.078 309.444 124.367 310.215 122.72 C 312.819 117.089 314.401 112.435 314.964 110.754 C 316.058 107.443 316.86 104.516 317.443 102.182 C 318.911 104.167 320.88 106.581 323.359 108.979 C 324.525 110.115 327.68 113.075 332.149 115.683 C 333.346 116.386 336.606 118.21 341.021 119.489 C 342.73 119.985 346.531 120.961 351.468 120.945 C 352.718 120.945 355.321 120.863 358.633 120.224 C 364.121 119.154 368.506 117.089 371.433 115.443 C 373.443 114.307 374.995 113.251 375.87 112.627 C 380.535 109.3 383.847 105.766 385.42 103.991 C 388.419 100.599 390.523 97.513 391.512 95.993 C 393.387 93.114 394.886 90.379 396.054 88.075 C 396.98 90.042 398.282 92.616 399.959 95.465 C 400.719 96.761 403.573 101.526 408.051 106.853 C 409.051 108.038 412.956 112.627 418.716 117.266 C 420.174 118.433 424.777 122.081 431.224 125.31 C 437.608 128.511 442.69 129.774 444.409 130.173 C 449.669 131.389 453.668 131.469 456.792 131.501 C 460.864 131.55 465.04 131.581 470.509 130.204 C 475.622 128.926 479.465 127.006 481.141 126.125 C 486.526 123.28 490.224 120.079 491.025 119.377 C 494.369 116.451 496.608 113.731 497.108 113.124 C 500.545 108.932 502.669 105.076 503.325 103.846 C 504.044 102.502 504.606 101.334 505.002 100.488 C 506.439 103.223 508.23 106.404 510.418 109.78 C 511.167 110.946 513.386 114.339 516.562 118.355 C 517.489 119.536 520.332 123.088 524.394 127.198 C 526.06 128.878 530.529 133.292 536.788 137.868 C 538.434 139.067 542.745 142.123 548.577 145.161 C 550.66 146.249 554.971 148.392 560.627 150.31 C 566.636 152.358 571.552 153.27 574.51 153.717 C 579.946 154.532 584.154 154.564 585.789 154.548 C 593.36 154.501 599.089 153.239 600.818 152.839 C 608.941 150.951 614.836 147.961 616.138 147.303 C 623.324 143.608 628.271 139.435 629.479 138.393 C 634.04 134.476 637.03 130.909 637.967 129.757 C 639.925 127.375 641.498 125.135 642.664 123.375 C 643.611 122.112 644.716 120.448 645.789 118.273 C 646.621 116.592 647.257 114.978 647.746 113.539 C 648.913 115.009 650.652 116.897 653.016 118.257 C 653.225 118.386 653.819 118.721 654.63 119.056 C 660.036 121.36 667.971 120.913 668.295 120.898 C 670.805 120.737 674.148 120.353 678.074 119.377 C 680.939 118.386 684.01 117.122 687.26 115.506 C 690.593 113.857 693.655 112.066 696.415 110.276 C 696.248 111.475 696.091 113.283 696.248 115.41 C 696.415 117.618 696.935 120.433 699.269 125.216 C 702.757 132.347 707.152 137.499 707.152 137.499 C 707.152 137.499 710.672 142.456 713.64 145.912 C 717.275 150.151 720.462 152.598 722.43 154.086 C 724.409 155.59 727.461 157.684 731.366 159.524 C 733.325 160.452 736.146 161.604 739.605 162.451 C 744.437 163.634 748.249 163.634 749.999 163.587 C 751.175 163.556 753.362 163.427 756.091 162.915 C 759.517 162.259 762.142 161.299 763.381 160.803 C 765.35 160.035 766.745 159.301 769.026 158.117 C 771.296 156.934 773.181 155.861 774.556 155.03 C 774.754 154.932 775.035 154.756 775.379 154.532 C 777.139 153.349 778.212 151.766 778.774 151.015 C 779.618 149.863 780.93 148.343 782.93 146.856 L 781.284 0.584 L -4.675 0.584 L -4.05 111.651 L -4.06 111.682 Z" style=""/>
</svg>