<?xml version="1.0" encoding="utf-8"?>
<svg id="Layer_2" data-name="Layer 2" xmlns="http://www.w3.org/2000/svg" viewBox="0 0 779.64 174.85">
  <defs>
    <style>
      .cls-1 {
        fill: #fff;
        stroke: #231f20;
        stroke-miterlimit: 10;
        stroke-width: 3px;
      }
    </style>
  </defs>
  <path class="cls-1" d="M -0.681 67.448 C 1.689 71.991 6.026 78.95 13.489 85.509 C 23.095 93.938 33.002 97.392 38.239 98.841 C 42.617 100.044 51.861 102.079 63.424 100.527 C 73.485 99.18 80.629 95.737 82.491 94.801 C 87.853 92.118 92.583 88.613 94.385 87.266 C 96.114 85.971 97.532 84.83 98.536 83.987 C 101.837 86.424 106.278 89.096 111.879 91.06 C 113.183 91.512 117.934 93.126 124.446 93.742 C 126.682 93.958 131.847 94.318 138.378 93.331 C 141.618 92.848 146.348 91.851 151.72 89.662 C 157.145 87.441 160.924 84.943 162.31 83.998 C 164.825 82.271 166.834 80.575 168.324 79.197 C 169.753 80.832 171.751 82.97 174.308 85.293 C 175.642 86.506 180.27 90.618 187.268 94.781 C 188.479 95.5 192.298 97.731 197.608 100.013 C 199.089 100.65 202.659 102.141 207.441 103.6 C 209.14 104.125 213.177 105.307 218.519 106.304 C 221.5 106.859 225.443 107.465 230.049 107.794 C 230.485 107.825 233.04 107.918 238.164 108.093 C 241.995 108.226 244.241 108.298 247.315 108.093 C 247.47 108.082 248.94 107.979 250.659 107.784 C 259.582 106.746 268.577 103.775 271.921 102.614 C 276.424 101.051 279.415 99.715 280.357 99.283 C 283.649 97.793 286.113 96.446 287.262 95.809 C 290.107 94.215 292.21 92.828 293.026 92.283 C 298.969 88.294 302.986 84.419 303.948 83.473 C 308.233 79.269 310.914 75.599 311.679 74.541 C 314.268 70.922 315.841 67.931 316.399 66.852 C 317.487 64.724 318.283 62.843 318.863 61.342 C 320.323 62.616 322.279 64.169 324.743 65.711 C 325.902 66.44 329.038 68.342 333.481 70.018 C 334.671 70.47 337.91 71.642 342.3 72.464 C 343.997 72.783 347.775 73.41 352.681 73.4 C 353.924 73.4 356.512 73.348 359.804 72.937 C 365.258 72.248 369.616 70.922 372.525 69.863 C 374.523 69.134 376.066 68.455 376.934 68.054 C 381.572 65.916 384.863 63.644 386.427 62.503 C 389.407 60.324 391.5 58.34 392.482 57.364 C 394.345 55.513 395.837 53.756 396.995 52.275 C 397.917 53.54 399.211 55.195 400.877 57.024 C 401.633 57.857 404.468 60.92 408.92 64.343 C 409.913 65.104 413.796 68.054 419.519 71.035 C 420.969 71.786 425.545 74.129 431.953 76.206 C 438.298 78.262 443.349 79.074 445.057 79.331 C 450.284 80.112 454.259 80.163 457.364 80.184 C 461.411 80.215 465.562 80.235 470.997 79.351 C 476.08 78.529 479.9 77.295 481.566 76.73 C 486.917 74.9 490.593 72.844 491.389 72.392 C 494.712 70.511 496.938 68.764 497.435 68.373 C 500.851 65.68 502.962 63.202 503.615 62.411 C 504.328 61.547 504.887 60.797 505.28 60.252 C 506.709 62.01 508.49 64.056 510.663 66.225 C 511.41 66.975 513.615 69.154 516.771 71.734 C 517.691 72.495 520.518 74.777 524.556 77.419 C 526.212 78.498 530.652 81.335 536.873 84.275 C 538.509 85.046 542.794 87.009 548.591 88.963 C 550.661 89.662 554.947 91.039 560.567 92.273 C 566.54 93.588 571.426 94.174 574.366 94.462 C 579.77 94.986 583.951 95.007 585.577 94.997 C 593.101 94.966 598.795 94.154 600.513 93.897 C 608.587 92.684 614.446 90.761 615.74 90.34 C 622.882 87.965 627.799 85.283 629 84.614 C 633.534 82.096 636.506 79.804 637.436 79.063 C 639.382 77.532 640.946 76.093 642.105 74.962 C 643.047 74.15 644.144 73.081 645.21 71.683 C 646.039 70.604 646.67 69.565 647.155 68.64 C 648.315 69.586 650.044 70.799 652.394 71.673 C 652.601 71.755 653.191 71.971 653.998 72.187 C 659.371 73.667 667.258 73.379 667.58 73.369 C 670.075 73.266 673.397 73.019 677.299 72.392 C 680.146 71.755 683.199 70.943 686.429 69.905 C 689.743 68.846 692.785 67.694 695.528 66.543 C 695.362 67.314 695.208 68.476 695.362 69.843 C 695.528 71.261 696.045 73.071 698.364 76.144 C 701.832 80.729 706.2 84.039 706.2 84.039 C 706.2 84.039 709.699 87.225 712.649 89.446 C 716.262 92.17 719.429 93.742 721.385 94.698 C 723.352 95.665 726.386 97.011 730.266 98.193 C 732.213 98.79 735.019 99.53 738.455 100.075 C 743.259 100.835 747.046 100.835 748.786 100.804 C 749.955 100.784 752.13 100.702 754.841 100.373 C 758.246 99.951 760.855 99.334 762.087 99.016 C 764.044 98.522 765.43 98.05 767.699 97.289 C 769.954 96.528 771.828 95.839 773.195 95.305 C 773.39 95.243 773.67 95.13 774.011 94.986 C 775.761 94.226 776.827 93.208 777.386 92.725 C 778.225 91.985 779.528 91.008 781.517 90.052 L 779.881 -3.953 L -1.293 -3.953 L -0.671 67.427 L -0.681 67.448 Z" style=""/>
</svg>