<?xml version="1.0" encoding="utf-8"?>
<svg id="Layer_2" data-name="Layer 2" xmlns="http://www.w3.org/2000/svg" viewBox="0 0 779.64 174.85">
  <defs>
    <style>
      .cls-1 {
        fill: #fff;
        stroke: #231f20;
        stroke-miterlimit: 10;
        stroke-width: 3px;
      }
    </style>
  </defs>
  <path class="cls-1" d="M -28.407 110.914 C -25.897 118.015 -21.298 128.892 -13.384 139.143 C -3.196 152.319 7.311 157.718 12.866 159.981 C 17.508 161.862 27.31 165.043 39.574 162.617 C 50.242 160.513 57.82 155.131 59.794 153.667 C 65.48 149.474 70.498 143.996 72.408 141.889 C 74.242 139.865 75.744 138.083 76.809 136.765 C 80.311 140.575 85.02 144.751 90.96 147.821 C 92.343 148.526 97.381 151.048 104.287 152.013 C 106.658 152.35 112.137 152.913 119.062 151.369 C 122.499 150.614 127.515 149.058 133.212 145.636 C 138.966 142.164 142.973 138.259 144.443 136.782 C 147.11 134.083 149.241 131.432 150.82 129.277 C 152.336 131.834 154.455 135.175 157.167 138.806 C 158.582 140.702 163.49 147.128 170.911 153.636 C 172.195 154.759 176.245 158.247 181.877 161.813 C 183.447 162.809 187.234 165.14 192.304 167.42 C 194.107 168.242 198.388 170.088 204.053 171.647 C 207.214 172.514 211.395 173.46 216.281 173.976 C 216.743 174.023 219.453 174.169 224.887 174.443 C 228.95 174.65 231.332 174.764 234.592 174.443 C 234.755 174.425 236.314 174.264 238.138 173.959 C 247.6 172.338 257.14 167.695 260.687 165.879 C 265.462 163.436 268.634 161.348 269.632 160.673 C 273.123 158.343 275.738 156.239 276.955 155.242 C 279.973 152.751 282.203 150.583 283.067 149.732 C 289.37 143.497 293.631 137.44 294.651 135.961 C 299.195 129.39 302.038 123.654 302.851 122.001 C 305.595 116.344 307.264 111.668 307.856 109.983 C 309.009 106.657 309.853 103.717 310.469 101.371 C 312.017 103.362 314.09 105.789 316.704 108.2 C 317.934 109.339 321.26 112.311 325.971 114.931 C 327.233 115.638 330.668 117.47 335.323 118.753 C 337.124 119.253 341.13 120.232 346.333 120.218 C 347.651 120.218 350.396 120.137 353.886 119.494 C 359.671 118.418 364.292 116.344 367.378 114.688 C 369.496 113.549 371.133 112.489 372.053 111.862 C 376.971 108.519 380.462 104.969 382.12 103.185 C 385.281 99.779 387.502 96.678 388.542 95.152 C 390.518 92.26 392.1 89.513 393.327 87.199 C 394.306 89.176 395.678 91.763 397.446 94.621 C 398.246 95.924 401.253 100.712 405.974 106.061 C 407.027 107.25 411.146 111.862 417.215 116.522 C 418.753 117.694 423.605 121.357 430.402 124.604 C 437.131 127.816 442.487 129.086 444.299 129.488 C 449.841 130.708 454.057 130.788 457.351 130.822 C 461.642 130.869 466.043 130.9 471.808 129.518 C 477.199 128.234 481.25 126.306 483.017 125.422 C 488.691 122.561 492.589 119.35 493.433 118.642 C 496.957 115.701 499.319 112.972 499.845 112.359 C 503.468 108.151 505.708 104.278 506.4 103.042 C 507.155 101.691 507.749 100.518 508.165 99.667 C 509.681 102.415 511.569 105.613 513.874 109.004 C 514.666 110.175 517.005 113.58 520.352 117.613 C 521.327 118.803 524.326 122.37 528.607 126.499 C 530.364 128.185 535.072 132.619 541.671 137.215 C 543.404 138.421 547.95 141.489 554.097 144.542 C 556.293 145.636 560.837 147.787 566.798 149.715 C 573.132 151.772 578.314 152.687 581.432 153.137 C 587.162 153.956 591.597 153.989 593.321 153.974 C 601.301 153.925 607.339 152.657 609.16 152.254 C 617.723 150.358 623.937 147.352 625.309 146.695 C 632.883 142.982 638.098 138.79 639.371 137.746 C 644.18 133.809 647.332 130.226 648.317 129.068 C 650.382 126.676 652.04 124.427 653.27 122.658 C 654.268 121.39 655.432 119.718 656.563 117.534 C 657.442 115.848 658.11 114.223 658.625 112.778 C 659.855 114.255 661.689 116.152 664.181 117.519 C 664.4 117.647 665.026 117.984 665.882 118.321 C 671.58 120.634 679.945 120.185 680.285 120.168 C 682.932 120.008 686.455 119.622 690.593 118.642 C 693.612 117.647 696.85 116.377 700.276 114.755 C 703.789 113.1 707.016 111.299 709.925 109.5 C 709.748 110.706 709.586 112.521 709.748 114.657 C 709.925 116.875 710.474 119.703 712.933 124.506 C 716.611 131.673 721.243 136.846 721.243 136.846 C 721.243 136.846 724.952 141.826 728.082 145.297 C 731.914 149.555 735.272 152.013 737.346 153.506 C 739.433 155.018 742.65 157.121 746.764 158.97 C 748.83 159.902 751.806 161.059 755.448 161.911 C 760.544 163.098 764.561 163.098 766.405 163.05 C 767.645 163.019 769.952 162.89 772.826 162.376 C 776.438 161.717 779.204 160.752 780.511 160.255 C 782.587 159.484 784.057 158.745 786.463 157.556 C 788.855 156.367 790.842 155.29 792.291 154.455 C 792.498 154.359 792.795 154.182 793.157 153.956 C 795.013 152.768 796.143 151.176 796.736 150.422 C 797.626 149.265 799.009 147.739 801.117 146.244 L 799.381 -0.687 L -29.063 -0.687 L -28.397 110.881 L -28.407 110.914 Z" style=""/>
</svg>